<?xml version="1.0" encoding="UTF-8" standalone="no"?>
<!-- Created with Inkscape (http://www.inkscape.org/) -->

<svg
   xmlns:dc="http://purl.org/dc/elements/1.1/"
   xmlns:cc="http://creativecommons.org/ns#"
   xmlns:rdf="http://www.w3.org/1999/02/22-rdf-syntax-ns#"
   xmlns:svg="http://www.w3.org/2000/svg"
   xmlns="http://www.w3.org/2000/svg"
   xmlns:sodipodi="http://sodipodi.sourceforge.net/DTD/sodipodi-0.dtd"
   xmlns:inkscape="http://www.inkscape.org/namespaces/inkscape"
   version="1.1"
   id="svg76"
   width="990"
   height="320"
   viewBox="0 0 990 320"
   sodipodi:docname="Amper_Logotype.svg"
   inkscape:version="0.92.4 (5da689c313, 2019-01-14)">
  <metadata
     id="metadata82">
    <rdf:RDF>
      <cc:Work
         rdf:about="">
        <dc:format>image/svg+xml</dc:format>
        <dc:type
           rdf:resource="http://purl.org/dc/dcmitype/StillImage" />
        <dc:title></dc:title>
      </cc:Work>
    </rdf:RDF>
  </metadata>
  <defs
     id="defs80" />
  <sodipodi:namedview
     pagecolor="#ffffff"
     bordercolor="#666666"
     borderopacity="1"
     objecttolerance="10"
     gridtolerance="10"
     guidetolerance="10"
     inkscape:pageopacity="0"
     inkscape:pageshadow="2"
     inkscape:window-width="1366"
     inkscape:window-height="705"
     id="namedview78"
     showgrid="false"
     inkscape:zoom="1"
     inkscape:cx="483.12652"
     inkscape:cy="250.84095"
     inkscape:window-x="-8"
     inkscape:window-y="-8"
     inkscape:window-maximized="1"
     inkscape:current-layer="svg76" />
  <path
     style="fill:#F3C422;stroke-width:0.61976796"
     d="m 4.8501238,314.04184 c 0.1895,-0.68175 4.6703,-17.97328 9.9574002,-38.42562 5.2871,-20.45234 11.0589,-42.76399 12.826,-49.58144 12.0136,-46.34597 15.5708,-60.04602 23.8161,-91.72565 2.218,-8.52182 5.3433,-20.58405 6.945,-26.80497 l 2.9122,-11.31077 h 39.795296 39.7953 l 51.2932,-46.163579 c 28.2112,-25.389968 51.3663,-46.090445 51.4557,-46.001052 0.089,0.08939 -12.5625,49.170904 -28.1153,109.070031 l -28.2779,108.9075 h -39.548 -39.5481 l -15.342996,13.75355 c -8.4387,7.56444 -15.4825,13.90932 -15.6529,14.09971 -0.1704,0.19041 -2.8199,2.575 -5.8878,5.2991 -3.0678,2.7241 -6.9724,6.23813 -8.6767,7.80895 -1.7044,1.57081 -14.5336,13.11739 -28.5094,25.65906 -13.9757,12.54165 -26.3489002,23.66967 -27.4960002,24.72889 -1.6923,1.56271 -2.0206,1.6921 -1.7411,0.68629 z"
     id="path481-5"
     inkscape:connector-curvature="0" />
  <rect
     id="rect487-9"
     width="358.34378"
     height="23.653299"
     x="246.49998"
     y="240.66026"
     style="fill:#F3C422;stroke-width:1.27149403" />
  <rect
     id="rect487-7-6"
     width="293.02893"
     height="23.653299"
     x="690.20447"
     y="240.66026"
     style="fill:#F3C422;stroke-width:1.14979303" />
  <path
     style="fill:#F3C422;stroke-width:0.44596994"
     d="m 247.82272,221.62891 c 1e-4,-0.18671 14.0169,-37.26579 31.1484,-82.39795 l 31.1482,-82.058469 18.6887,-0.113142 18.6888,-0.113143 1.7545,4.795823 c 0.965,2.63771 14.8343,39.767611 30.8207,82.510891 l 29.066,77.71505 -18.727,-0.11628 -18.7271,-0.11628 -6.0729,-17.8388 c -3.3402,-9.81134 -6.2354,-18.08966 -6.4338,-18.39626 -0.2829,-0.43709 -6.9944,-0.55746 -31.0801,-0.55746 -24.0867,0 -30.7968,0.12036 -31.0782,0.55746 -0.1974,0.3066 -3.1879,8.58492 -6.6455,18.39626 l -6.2866,17.8388 -18.1321,0.11649 c -9.9727,0.0641 -18.1321,-0.0362 -18.132,-0.22299 z m 91.4894,-94.0033 c -5.7669,-16.8075 -10.6684,-30.498 -10.8924,-30.42334 -0.3672,0.12238 -21.7291,59.70269 -21.7291,60.60429 0,0.20797 9.699,0.37813 21.5533,0.37813 h 21.5533 z"
     id="path70-3"
     inkscape:connector-curvature="0" />
  <path
     style="fill:#F3C422;stroke-width:0.44596994"
     d="m 421.75082,162.19842 v -59.75998 h 15.386 15.3859 v 8.02747 c 0,4.5561 0.1765,8.02745 0.408,8.02745 0.2244,0 1.109,-0.95326 1.9658,-2.11836 1.9781,-2.68972 7.4677,-7.985 10.2207,-9.85882 3.1886,-2.1703 9.0497,-4.84139 13.0488,-5.94676 3.112,-0.86017 4.6501,-0.98479 12.0412,-0.97557 7.3192,0.009 8.9594,0.1438 12.0412,0.9887 9.4995,2.60437 16.4654,7.873 20.8732,15.78716 0.7839,1.40747 1.5305,2.56142 1.659,2.56433 0.1286,0.002 1.1251,-1.21865 2.2145,-2.71459 1.0893,-1.49594 3.5622,-4.20773 5.4953,-6.02621 5.7972,-5.4536 12.2654,-8.73627 20.1526,-10.22759 5.2798,-0.99832 16.8487,-0.6675 22.608,0.6465 15.6288,3.56569 24.4522,12.45647 28.1466,28.36151 0.9067,3.90361 0.9365,5.23425 1.0848,48.49923 l 0.1524,44.4855 h -16.2737 -16.2738 l -0.1757,-39.35685 c -0.1828,-40.93543 -0.1853,-40.9919 -2.1524,-47.03745 -1.1065,-3.40092 -4.0327,-6.8292 -7.1984,-8.43337 -4.2473,-2.15224 -10.3603,-2.89397 -15.745,-1.91044 -10.0688,1.83908 -15.6974,9.72143 -17.1241,23.98077 -0.2745,2.74335 -0.4621,18.45073 -0.4621,38.68789 v 34.06945 h -16.2779 -16.2779 l -0.014,-38.46491 c -0.014,-37.87439 -0.1697,-42.70645 -1.531,-47.39305 -1.9052,-6.55875 -7.5333,-10.48992 -16.0485,-11.20972 -10.5722,-0.89368 -19.531,5.30443 -23.3061,16.12414 l -1.2448,3.56775 -0.1278,38.6879 -0.1278,38.68789 h -16.2617 -16.2616 z"
     id="path72-3"
     inkscape:connector-curvature="0" />
  <path
     style="fill:#F3C422;stroke-width:0.44596994"
     d="m 631.24472,183.3703 v -80.94355 h 15.386 15.3859 v 7.58149 c 0,4.27066 0.1777,7.58149 0.4069,7.58149 0.2237,0 1.3032,-1.25429 2.3989,-2.78732 5.0033,-7.00046 12.5127,-11.98936 21.3578,-14.18923 4.8575,-1.20809 14.3735,-1.61978 20.2738,-0.87711 24.0131,3.02257 40.2651,20.63479 45.2815,49.07155 0.3905,2.21365 0.584,7.19062 0.5723,14.71702 -0.019,12.30848 -0.4493,15.59429 -3.1679,24.20005 -6.2247,19.70462 -20.8895,33.53405 -38.9054,36.68921 -4.9698,0.87037 -14.9929,0.84743 -19.6978,-0.0451 -9.9748,-1.89218 -18.6373,-7.07467 -24.0604,-14.39446 -1.1037,-1.48985 -2.1574,-2.71687 -2.3413,-2.72674 -0.184,-0.01 -0.3345,12.82601 -0.3345,28.52415 v 28.54208 h -16.2779 -16.2779 z m 68.4869,16.48794 c 13.6521,-3.48507 20.2651,-15.58206 20.2593,-37.0598 0,-14.67754 -3.2889,-24.49409 -10.6635,-31.86649 -5.2358,-5.23417 -10.0483,-7.09865 -18.3227,-7.09865 -8.1541,0 -13.1095,1.88404 -18.0883,6.87707 -6.5565,6.57531 -9.7594,15.51301 -10.3211,28.80053 -0.981,23.20864 7.9972,38.49046 24.1224,41.05876 3.0579,0.48705 9.7527,0.12107 13.0139,-0.71142 z"
     id="path80-4"
     inkscape:connector-curvature="0" />
  <path
     style="fill:#F3C422;stroke-width:0.44596994"
     d="m 816.09922,224.38827 c -6.3458,-1.02066 -11.6187,-2.70435 -17.3928,-5.55375 -6.0455,-2.98332 -9.2177,-5.23645 -14.048,-9.97786 -8.2079,-8.05679 -13.9359,-19.33877 -16.336,-32.17591 -1.291,-6.90436 -1.1735,-22.80058 0.2158,-29.21104 2.7113,-12.50983 7.8532,-22.32381 16.1202,-30.7669 11.2775,-11.51781 25.9441,-17.39785 43.3955,-17.39785 20.8845,0 35.9943,7.88424 47.2759,24.66834 7.058,10.50042 10.4863,22.34893 10.8956,37.65596 l 0.2295,8.58493 h -43.3822 -43.3822 l 0.2823,3.34054 c 0.8583,10.15331 5.3056,18.74667 11.888,22.97054 6.9241,4.44319 18.9061,5.59774 27.7087,2.66993 6.2405,-2.07557 12.8141,-7.09621 14.9158,-11.39192 l 1.1869,-2.42612 h 14.2125 14.2125 l -0.934,2.56433 c -3.2737,8.9887 -8.5758,17.24468 -14.9211,23.2341 -6.5959,6.22601 -13.9926,10.09469 -23.7104,12.40136 -4.2152,1.00051 -5.9843,1.15768 -14.6074,1.29764 -7.0948,0.11515 -10.9226,-0.0195 -13.8251,-0.48632 z m 37.4299,-75.91512 c -1.89,-8.53322 -4.3795,-13.69382 -8.7165,-18.06834 -4.6963,-4.73702 -9.668,-6.57151 -17.8095,-6.57151 -5.4233,0 -10.2717,1.03894 -13.9474,2.98875 -3.1369,1.66401 -8.2236,6.87179 -10.012,10.25034 -1.561,2.94897 -3.2224,8.69109 -3.2224,11.13762 v 1.48955 h 26.9897 26.9897 z"
     id="path82-5"
     inkscape:connector-curvature="0" />
  <path
     style="fill:#F3C422;stroke-width:0.31534839"
     d="m 906.15642,162.28241 v -59.75852 h 15.4521 15.4521 v 11.0372 c 0,8.62028 0.086,11.03688 0.3941,11.03576 0.2168,-6.3e-4 1.1367,-1.45533 2.0442,-3.23232 2.0674,-4.04849 3.9899,-6.60373 7.5432,-10.02615 6.2478,-6.01769 14.7624,-10.36512 22.9482,-11.71711 2.9984,-0.49522 9.4003,-0.41866 11.3767,0.13607 l 1.5767,0.44256 0.081,15.22995 0.082,15.22995 -0.7125,-0.17453 c -4.6178,-1.13097 -16.5452,-1.07339 -21.0024,0.10141 -10.43,2.74911 -16.779,8.90692 -20.1622,19.55482 -2.1519,6.77275 -2.0917,5.66576 -2.2014,40.44342 l -0.099,31.456 h -16.3866 -16.3866 z"
     id="path86-7"
     inkscape:connector-curvature="0" />
</svg>
