<?xml version="1.0" encoding="UTF-8" standalone="no"?>
<!-- Created with Inkscape (http://www.inkscape.org/) -->

<svg
   xmlns:dc="http://purl.org/dc/elements/1.1/"
   xmlns:cc="http://creativecommons.org/ns#"
   xmlns:rdf="http://www.w3.org/1999/02/22-rdf-syntax-ns#"
   xmlns:svg="http://www.w3.org/2000/svg"
   xmlns="http://www.w3.org/2000/svg"
   xmlns:sodipodi="http://sodipodi.sourceforge.net/DTD/sodipodi-0.dtd"
   xmlns:inkscape="http://www.inkscape.org/namespaces/inkscape"
   width="260"
   height="175"
   viewBox="0 0 68.791665 46.302093"
   version="1.1"
   id="svg2049"
   inkscape:version="0.92.4 (5da689c313, 2019-01-14)"
   sodipodi:docname="cyoa_bg_icon_globe.svg">
  <defs
     id="defs2043" />
  <sodipodi:namedview
     id="base"
     pagecolor="#ffffff"
     bordercolor="#666666"
     borderopacity="1.0"
     inkscape:pageopacity="0.0"
     inkscape:pageshadow="2"
     inkscape:zoom="2"
     inkscape:cx="243.86659"
     inkscape:cy="105.18702"
     inkscape:document-units="mm"
     inkscape:current-layer="layer1"
     showgrid="false"
     inkscape:window-width="1366"
     inkscape:window-height="705"
     inkscape:window-x="-8"
     inkscape:window-y="-8"
     inkscape:window-maximized="1"
     units="px" />
  <metadata
     id="metadata2046">
    <rdf:RDF>
      <cc:Work
         rdf:about="">
        <dc:format>image/svg+xml</dc:format>
        <dc:type
           rdf:resource="http://purl.org/dc/dcmitype/StillImage" />
        <dc:title></dc:title>
      </cc:Work>
    </rdf:RDF>
  </metadata>
  <g
     inkscape:label="Camada 1"
     inkscape:groupmode="layer"
     id="layer1"
     transform="translate(0,-250.69781)">
    <path
       style="opacity:1;vector-effect:none;fill:#ffffff;fill-opacity:1;stroke-width:0.35714287;stroke-linecap:butt;stroke-linejoin:miter;stroke-miterlimit:4;stroke-dasharray:none;stroke-dashoffset:0;stroke-opacity:1"
       d="m 35.427962,287.50567 c 5.097096,0.004 10.194219,-0.007 15.291308,0.004 -3.503565,5.14875 -9.612291,7.96519 -15.291308,8.71598 0,-2.90666 0,-5.81332 0,-8.71998 z"
       id="path2077"
       inkscape:connector-curvature="0"
       sodipodi:nodetypes="cccc" />
    <path
       style="opacity:1;vector-effect:none;fill:#ffffff;fill-opacity:1;stroke-width:0.35714287;stroke-linecap:butt;stroke-linejoin:miter;stroke-miterlimit:4;stroke-dasharray:none;stroke-dashoffset:0;stroke-opacity:1"
       d="m 7.7338522,287.50568 c 2.8520698,0 5.7041408,0 8.5562108,0 2.088578,3.67187 2.42604,3.98625 6.308511,7.17668 -5.840564,-1.08774 -10.400677,-3.54372 -14.8647218,-7.17668 z"
       id="path2073"
       inkscape:connector-curvature="0"
       sodipodi:nodetypes="cccc" />
    <path
       style="opacity:1;vector-effect:none;fill:#ffffff;fill-opacity:1;stroke-width:0.35714287;stroke-linecap:butt;stroke-linejoin:miter;stroke-miterlimit:4;stroke-dasharray:none;stroke-dashoffset:0;stroke-opacity:1"
       d="m 18.408349,287.50562 c 5.074742,0 10.149485,0 15.224227,0 -0.0072,2.89335 0.01059,5.78681 -0.0017,8.68013 -6.897488,-1.05099 -11.496203,-3.51645 -15.222527,-8.68013 z"
       id="path2075"
       inkscape:connector-curvature="0"
       sodipodi:nodetypes="cccc" />
    <path
       style="opacity:1;vector-effect:none;fill:#ffffff;fill-opacity:1;stroke-width:0.35714287;stroke-linecap:butt;stroke-linejoin:miter;stroke-miterlimit:4;stroke-dasharray:none;stroke-dashoffset:0;stroke-opacity:1"
       d="m 46.486307,294.50916 c 2.708649,-2.13004 4.84841,-4.27781 6.564794,-7.00319 2.56954,-1.1e-4 5.139079,-2.1e-4 7.708619,-3.1e-4 -4.181033,3.74585 -5.421731,4.57644 -14.273413,7.0035 z"
       id="path2079"
       inkscape:connector-curvature="0"
       sodipodi:nodetypes="cccc" />
    <path
       style="opacity:1;vector-effect:none;fill:#ffffff;fill-opacity:1;stroke-width:0.35714287;stroke-linecap:butt;stroke-linejoin:miter;stroke-miterlimit:4;stroke-dasharray:none;stroke-dashoffset:0;stroke-opacity:1"
       d="m 56.878097,274.46394 c 3.63549,0.0163 7.270981,0.0325 10.906471,0.0488 -0.10897,3.94747 -2.945197,8.75735 -5.133319,11.19753 -2.837816,0.004 -5.675681,-0.007 -8.513487,0.004 1.68387,-3.52545 2.645165,-8.13177 2.740335,-11.25033 z"
       id="path2081"
       inkscape:connector-curvature="0"
       sodipodi:nodetypes="ccccc" />
    <path
       style="opacity:1;vector-effect:none;fill:#ffffff;fill-opacity:1;stroke-width:0.35714287;stroke-linecap:butt;stroke-linejoin:miter;stroke-miterlimit:4;stroke-dasharray:none;stroke-dashoffset:0;stroke-opacity:1"
       d="m 35.427962,274.46548 c 6.551588,0 13.103175,0 19.654763,0 -0.239667,3.96385 -1.143348,7.52775 -2.995577,11.24526 -5.754873,-0.0109 -8.553473,0.003 -16.659185,0.001 -10e-7,-3.74875 -10e-7,-7.49751 -10e-7,-11.24626 z"
       id="path2083"
       inkscape:connector-curvature="0"
       sodipodi:nodetypes="ccccc" />
    <path
       style="opacity:1;vector-effect:none;fill:#ffffff;fill-opacity:1;stroke-width:0.35714287;stroke-linecap:butt;stroke-linejoin:miter;stroke-miterlimit:4;stroke-dasharray:none;stroke-dashoffset:0;stroke-opacity:1"
       d="m 35.427962,261.80328 c 5.5594,0.003 11.118801,0.005 16.678201,0.008 1.87401,3.29307 2.93906,7.82275 2.976571,10.95336 -6.551588,0 -13.103175,0 -19.654763,0 -10e-6,-3.65379 -9e-6,-7.30757 -9e-6,-10.96136 z"
       id="path2085"
       inkscape:connector-curvature="0"
       sodipodi:nodetypes="ccccc" />
    <path
       style="opacity:1;vector-effect:none;fill:#ffffff;fill-opacity:1;stroke-width:0.35714287;stroke-linecap:butt;stroke-linejoin:miter;stroke-miterlimit:4;stroke-dasharray:none;stroke-dashoffset:0;stroke-opacity:1"
       d="m 54.232286,261.80225 c 2.94584,10e-4 4.428872,10e-4 8.627989,10e-4 3.034301,2.35824 4.777863,6.75919 4.942869,10.96131 H 56.878125 c -0.01882,-3.83701 -1.328966,-7.8642 -2.645839,-10.96231 z"
       id="path2087"
       inkscape:connector-curvature="0"
       sodipodi:nodetypes="ccccc" />
    <path
       style="opacity:1;vector-effect:none;fill:#ffffff;fill-opacity:1;stroke-width:0.35714287;stroke-linecap:butt;stroke-linejoin:miter;stroke-miterlimit:4;stroke-dasharray:none;stroke-dashoffset:0;stroke-opacity:1"
       d="m 46.449593,252.71296 c 5.48789,0.89755 10.906455,3.301 14.469833,7.38865 -2.578295,0.002 -3.895022,8.9e-4 -7.71117,8.9e-4 -2.157025,-3.32093 -3.690196,-5.05159 -6.758663,-7.38954 z"
       id="path2089"
       inkscape:connector-curvature="0"
       sodipodi:nodetypes="cccc" />
    <path
       style="opacity:1;vector-effect:none;fill:#ffffff;fill-opacity:1;stroke-width:0.35714287;stroke-linecap:butt;stroke-linejoin:miter;stroke-miterlimit:4;stroke-dasharray:none;stroke-dashoffset:0;stroke-opacity:1"
       d="m 35.427962,251.21994 c 4.019806,0.0673 13.247463,3.88038 15.31454,8.87945 -4.889048,0.006 -7.212472,0.003 -15.314544,0.003 4e-6,-2.96082 4e-6,-5.92163 4e-6,-8.88245 z"
       id="path2091"
       inkscape:connector-curvature="0"
       sodipodi:nodetypes="cccc" />
    <path
       style="opacity:1;vector-effect:none;fill:#ffffff;fill-opacity:1;stroke-width:0.35714287;stroke-linecap:butt;stroke-linejoin:miter;stroke-miterlimit:4;stroke-dasharray:none;stroke-dashoffset:0;stroke-opacity:1"
       d="m 33.632572,251.26129 c 0,2.96081 0,5.92163 0,8.88244 -5.082267,-0.004 -10.705435,0.004 -15.402526,0.004 4.153233,-6.39479 8.940417,-8.88644 15.402526,-8.88644 z"
       id="path2093"
       inkscape:connector-curvature="0"
       sodipodi:nodetypes="cccc" />
    <path
       style="opacity:1;vector-effect:none;fill:#ffffff;fill-opacity:1;stroke-width:0.35714287;stroke-linecap:butt;stroke-linejoin:miter;stroke-miterlimit:4;stroke-dasharray:none;stroke-dashoffset:0;stroke-opacity:1"
       d="m 14.985846,266.92293 c 0.76918,-2.59 1.033386,-2.91894 2.158561,-5.11799 5.811139,-0.003 8.566209,-0.002 16.488169,-0.002 0,3.65377 0,7.30754 0,10.96131 -6.55848,0 -13.116959,0 -19.675439,0 0.02049,-0.65684 0.332471,-3.96024 1.028709,-5.84166 z"
       id="path2095"
       inkscape:connector-curvature="0"
       sodipodi:nodetypes="ccccccc" />
    <path
       style="opacity:1;vector-effect:none;fill:#ffffff;fill-opacity:1;stroke-width:0.35714287;stroke-linecap:butt;stroke-linejoin:miter;stroke-miterlimit:4;stroke-dasharray:none;stroke-dashoffset:0;stroke-opacity:1"
       d="m 14.025061,274.51272 c 6.535838,-0.0161 13.071677,-0.0321 19.607515,-0.0481 v 11.24566 H 17.199478 c -2.593225,-4.09713 -3.14568,-6.36342 -3.174417,-11.19756 z"
       id="path2097"
       inkscape:connector-curvature="0"
       sodipodi:nodetypes="ccccc" />
    <path
       style="opacity:1;vector-effect:none;fill:#ffffff;fill-opacity:1;stroke-width:0.35714287;stroke-linecap:butt;stroke-linejoin:miter;stroke-miterlimit:4;stroke-dasharray:none;stroke-dashoffset:0;stroke-opacity:1"
       d="m 0.70140024,274.51272 c 4.15805836,0 7.51682996,0.0387 11.32133276,0.0387 -0.130472,4.19818 0.510994,6.75328 2.805523,11.15498 -3.204106,0.002 -4.755039,-4.2e-4 -9.0241812,-0.004 C 2.98038,282.53808 0.85642351,277.98785 0.70140024,274.51272 Z"
       id="path2099"
       inkscape:connector-curvature="0"
       sodipodi:nodetypes="ccccc" />
    <path
       style="opacity:1;vector-effect:none;fill:#ffffff;fill-opacity:1;stroke-width:0.35714287;stroke-linecap:butt;stroke-linejoin:miter;stroke-miterlimit:4;stroke-dasharray:none;stroke-dashoffset:0;stroke-opacity:1"
       d="m 5.6333064,261.80328 c 3.0572999,-2.6e-4 6.1145996,-2.5e-4 9.1718986,0.002 -1.708839,3.3652 -2.52669,7.20703 -2.724336,10.96018 -4.0886409,0.0166 -6.3416498,0.006 -11.39042588,-0.001 0.25184753,-4.24678 2.35077858,-8.11745 4.94286328,-10.96118 z"
       id="path2101"
       inkscape:connector-curvature="0"
       sodipodi:nodetypes="ccccc" />
    <path
       style="opacity:1;vector-effect:none;fill:#ffffff;fill-opacity:1;stroke-width:0.35714287;stroke-linecap:butt;stroke-linejoin:miter;stroke-miterlimit:4;stroke-dasharray:none;stroke-dashoffset:0;stroke-opacity:1"
       d="m 22.88743,252.5428 c -2.854007,2.40232 -5.369648,4.52272 -7.155276,7.55956 -2.849981,0.009 -5.297144,-0.0187 -8.1580066,0.001 4.4585736,-4.05536 9.5472616,-6.55373 15.3132826,-7.56056 z"
       id="path2103"
       inkscape:connector-curvature="0"
       sodipodi:nodetypes="cccc" />
  </g>
</svg>
