<?xml version="1.0" encoding="UTF-8" standalone="no"?>
<!-- Created with Inkscape (http://www.inkscape.org/) -->

<svg
   xmlns:dc="http://purl.org/dc/elements/1.1/"
   xmlns:cc="http://creativecommons.org/ns#"
   xmlns:rdf="http://www.w3.org/1999/02/22-rdf-syntax-ns#"
   xmlns:svg="http://www.w3.org/2000/svg"
   xmlns="http://www.w3.org/2000/svg"
   xmlns:sodipodi="http://sodipodi.sourceforge.net/DTD/sodipodi-0.dtd"
   xmlns:inkscape="http://www.inkscape.org/namespaces/inkscape"
   width="250"
   height="250"
   viewBox="0 0 250 250.00001"
   version="1.1"
   id="svg4623"
   inkscape:version="0.92.4 (5da689c313, 2019-01-14)"
   sodipodi:docname="cyoa_heavy_icon.svg">
  <defs
     id="defs4617" />
  <sodipodi:namedview
     id="base"
     pagecolor="#ffffff"
     bordercolor="#666666"
     borderopacity="1.0"
     inkscape:pageopacity="0.0"
     inkscape:pageshadow="2"
     inkscape:zoom="1"
     inkscape:cx="345.26002"
     inkscape:cy="97.756093"
     inkscape:document-units="px"
     inkscape:current-layer="layer1"
     showgrid="false"
     units="px"
     inkscape:window-width="1366"
     inkscape:window-height="705"
     inkscape:window-x="-8"
     inkscape:window-y="-8"
     inkscape:window-maximized="1"
     showguides="false" />
  <metadata
     id="metadata4620">
    <rdf:RDF>
      <cc:Work
         rdf:about="">
        <dc:format>image/svg+xml</dc:format>
        <dc:type
           rdf:resource="http://purl.org/dc/dcmitype/StillImage" />
        <dc:title />
      </cc:Work>
    </rdf:RDF>
  </metadata>
  <g
     inkscape:label="Layer 1"
     inkscape:groupmode="layer"
     id="layer1"
     transform="translate(0,-872.51958)">
    <path
       style="opacity:1;vector-effect:none;fill:#ffffff;fill-opacity:1;stroke:none;stroke-width:0.51966691;stroke-linecap:butt;stroke-linejoin:miter;stroke-miterlimit:4;stroke-dasharray:none;stroke-dashoffset:0;stroke-opacity:1"
       d="m 148.93833,1083.1172 c -4.56472,-2.1156 -8.44243,-3.8918 -13.26008,-6.3701 -0.98788,-0.4714 -2.41246,-1.497 -3.48357,-2.2446 3.01866,-4.3112 5.67587,-6.5713 9.20849,-10.4738 3.8556,-4.4008 11.54786,-12.5377 17.42522,-18.4323 5.34805,-5.3637 7.25897,-7.8127 7.25897,-9.3026 0,-0.8864 -0.31063,-1.1201 -1.48892,-1.1201 -1.26198,0 -3.84269,1.4408 -4.7471,2.6502 -3.81145,5.0968 -5.01283,6.4546 -11.88725,13.4342 -3.25109,3.3008 -9.09735,9.3427 -12.99168,13.4264 -2.4209,2.7266 -4.84445,5.0277 -7.72714,7.2882 -8.2437,-3.0092 -18.53372,-8.3738 -27.06292,-12.6705 7.63135,-9.7599 15.69677,-18.1053 23.57381,-26.4669 5.07081,-5.2713 10.2352,-11.226 15.13072,-16.1825 4.50341,-4.5499 6.93347,-7.9723 6.93347,-9.7647 0,-1.1342 -0.23244,-1.3354 -1.54262,-1.3354 -1.2693,0 -1.92043,0.5115 -3.67512,2.8867 -9.66419,11.1773 -12.68479,14.1407 -23.40294,25.4339 -6.41177,7.6974 -13.26162,14.7489 -20.383754,22.4019 -1.301214,1.5624 -1.70547,0.902 -4.98914,-0.6565 -3.555408,-1.6874 -10.75888,-8.8204 -15.567158,-15.415 -3.494704,-4.7931 -3.434562,-4.4892 -1.37381,-6.9443 7.639484,-9.5008 17.041625,-18.9771 23.952063,-26.5101 1.423259,-1.5645 11.387799,-12.11958 18.022839,-19.0911 3.18963,-3.35136 4.12449,-5.29308 2.91672,-6.05798 -1.42429,-0.90202 -2.71142,-0.43462 -4.81573,1.74873 -4.10412,4.25827 -16.788175,17.81175 -19.806844,21.16435 -3.348694,3.7194 -8.599408,9.3396 -18.398009,19.693 -4.422018,4.6723 -6.628134,6.6553 -7.031708,6.3202 -3.935857,-7.6915 -6.777773,-14.3508 -9.649836,-21.6417 2.032341,-5.877 6.605708,-16.26667 9.749936,-21.74795 3.28003,-6.57444 6.566333,-12.84412 10.517072,-21.8619 0,-0.42676 -0.209119,-0.77594 -0.46471,-0.77594 -3.623739,2.5209 -5.251903,5.54086 -7.718266,9.09475 -1.86082,3.14259 -3.625879,6.65663 -5.067405,9.8731 -2.690931,6.14301 -5.438145,12.16092 -8.012847,17.49534 -2.303439,4.7688 -3.566432,7.9784 -3.374164,8.5746 1.33821,3.8201 2.411021,5.4669 3.850715,9.2719 2.032907,5.1574 4.231275,8.2751 5.342643,12.9671 0.104208,1.4086 -0.172471,1.6835 -3.263975,3.244 -4.519977,2.553 -4.278019,2.0652 -5.196669,0.9335 -1.124407,-1.3818 -2.701115,-3.1479 -4.491389,-4.9979 -4.667574,-4.8236 -10.849354,-9.6548 -14.127019,-10.852 -1.10132,-1.5176 -1.638943,-3.7063 -2.694434,-8.7043 -0.992938,-3.7697 -1.142757,-4.4904 -1.842085,-8.5133 -0.0734,-4.42124 3.727987,-10.04188 5.336478,-13.92779 2.047196,-4.16611 2.374747,-4.93747 4.307109,-10.27534 0.241146,-0.74394 1.033757,-1.6899 3.767586,-3.32201 9.121086,-5.52048 16.495798,-10.76483 26.116699,-16.57796 3.38418,-2.14161 5.876185,-3.50293 8.830899,-5.5287 3.126328,-2.14344 6.959811,-5.93862 9.873827,-9.77518 4.1159,-5.13612 8.125407,-10.24751 11.856106,-14.34947 2.2418,-2.21286 7.85787,-4.00536 13.56702,-5.03987 5.64482,-0.87313 10.32806,-1.31892 16.28703,-0.70483 4.4,1.63793 8.28369,5.12394 11.97076,7.04297 1.83339,2.88629 2.41149,4.69128 3.31073,6.60027 l 3.09889,7.20407 c 10.04418,-0.808 10.53843,0.3439 13.1974,2.16698 2.00214,1.41353 5.57694,4.05249 8.20093,7.23481 1.45589,1.76569 1.45962,1.78992 1.23012,8.00704 -0.12657,3.42981 -0.48448,9.29139 -0.68306,9.76966 5.45785,0.47 8.00541,0.68279 13.51964,1.14335 4.78972,5.74966 7.09065,9.05831 11.28088,14.18602 -1.28221,6.28384 -2.79615,12.46231 -4.3384,18.85228 5.19347,0.2099 6.18545,-0.5567 8.45068,0.7395 4.28542,4.9003 9.79991,10.03 9.87368,15.523 0.0656,2.3885 -0.97274,4.1194 -1.559,6.303 -0.224,1.1038 -0.51966,2.3045 -0.51966,4.7284 0,6.6072 -0.36543,7.1438 -9.51172,13.9709 -5.84089,4.252 -11.97065,8.5536 -17.51097,12.7315 -9.53835,7.1531 -19.53418,15.0784 -28.77298,22.1004 -1.39138,1.2832 -2.79448,2.3277 -3.11799,2.3212 -0.90422,-0.2369 -1.69963,-0.5538 -2.40706,-0.8928 z"
       id="path4929"
       inkscape:connector-curvature="0"
       sodipodi:nodetypes="ccccssscccccccsscccssccccccscccccccccccccscccccccscccccccccscccccccsccccc" />
    <path
       style="fill:#ffffff;stroke:none;stroke-width:1.11468554px;stroke-linecap:butt;stroke-linejoin:miter;stroke-opacity:1"
       d="m 214.76006,1077.0744 -7.67727,8.0129 -11.43143,-18.9218 z"
       id="path4941-1"
       inkscape:connector-curvature="0" />
    <path
       style="fill:#ffffff;stroke:none;stroke-width:1.11468554px;stroke-linecap:butt;stroke-linejoin:miter;stroke-opacity:1"
       d="m 45.598877,924.69813 7.677331,-8.01286 11.431342,18.92159 z"
       id="path4941-2"
       inkscape:connector-curvature="0" />
    <path
       style="fill:#ffffff;stroke:none;stroke-width:1.11468554px;stroke-linecap:butt;stroke-linejoin:miter;stroke-opacity:1"
       d="m 207.18892,915.9808 8.01284,7.67734 -18.92159,11.43134 z"
       id="path4941"
       inkscape:connector-curvature="0" />
    <path
       style="fill:#ffffff;stroke:none;stroke-width:1.11468554px;stroke-linecap:butt;stroke-linejoin:miter;stroke-opacity:1"
       d="m 46.304547,1077.3685 7.677283,8.0129 11.431434,-18.9216 z"
       id="path4941-1-1"
       inkscape:connector-curvature="0" />
  </g>
</svg>
