<?xml version="1.0" encoding="UTF-8" standalone="no"?>
<!-- Created with Inkscape (http://www.inkscape.org/) -->

<svg
   xmlns:dc="http://purl.org/dc/elements/1.1/"
   xmlns:cc="http://creativecommons.org/ns#"
   xmlns:rdf="http://www.w3.org/1999/02/22-rdf-syntax-ns#"
   xmlns:svg="http://www.w3.org/2000/svg"
   xmlns="http://www.w3.org/2000/svg"
   xmlns:sodipodi="http://sodipodi.sourceforge.net/DTD/sodipodi-0.dtd"
   xmlns:inkscape="http://www.inkscape.org/namespaces/inkscape"
   width="250"
   height="250"
   viewBox="0 0 250 250.00001"
   version="1.1"
   id="svg4623"
   inkscape:version="0.92.4 (5da689c313, 2019-01-14)"
   sodipodi:docname="cyoa_classchoice_icon.svg">
  <defs
     id="defs4617" />
  <sodipodi:namedview
     id="base"
     pagecolor="#ffffff"
     bordercolor="#666666"
     borderopacity="1.0"
     inkscape:pageopacity="0.0"
     inkscape:pageshadow="2"
     inkscape:zoom="2.1449999"
     inkscape:cx="148.80464"
     inkscape:cy="113.02968"
     inkscape:document-units="px"
     inkscape:current-layer="layer1"
     showgrid="false"
     units="px"
     inkscape:window-width="1366"
     inkscape:window-height="705"
     inkscape:window-x="-8"
     inkscape:window-y="-8"
     inkscape:window-maximized="1" />
  <metadata
     id="metadata4620">
    <rdf:RDF>
      <cc:Work
         rdf:about="">
        <dc:format>image/svg+xml</dc:format>
        <dc:type
           rdf:resource="http://purl.org/dc/dcmitype/StillImage" />
        <dc:title />
      </cc:Work>
    </rdf:RDF>
  </metadata>
  <g
     inkscape:label="Layer 1"
     inkscape:groupmode="layer"
     id="layer1"
     transform="translate(0,-872.51958)">
    <path
       style="fill:#ffffff;stroke:none;stroke-width:0.39866254"
       d="m 129.55503,1106.2709 c -1.73311,-2.2285 -1.71821,-2.1638 -1.27381,-5.5365 0.47099,-3.5743 1.72381,-13.9277 2.57156,-21.2516 0.78573,-6.5809 1.69874,-13.7195 2.38599,-19.5563 1.55224,-13.2018 1.87096,-15.6747 2.14648,-16.6539 0.20366,-0.7238 1.04143,-1.1803 4.15512,-2.2646 9.5669,-3.3314 18.44821,-10.3134 23.45128,-18.4364 2.50497,-4.067 1.59925,-3.7802 9.11988,-2.8873 8.95415,1.1698 14.45566,1.9033 24.51774,3.1891 10.82765,1.2819 19.57527,2.1841 29.19134,3.5655 1.01368,0 1.6445,0.321 2.5248,1.2848 0.64544,0.7067 1.17352,1.5195 1.17352,1.8065 0,0.5167 -1.31459,4.7403 -1.95373,6.2773 -0.1824,0.4384 -0.74248,1.8736 -1.24467,3.1892 -8.18329,18.1362 -18.90456,33.4427 -34.47522,45.7973 -12.98614,10.0808 -27.86333,17.0269 -44.05219,20.5679 -3.25167,0.7113 -14.88864,2.404 -16.52624,2.404 -0.3021,0 -1.07242,-0.6727 -1.71185,-1.495 z"
       id="path4798"
       inkscape:connector-curvature="0"
       sodipodi:nodetypes="cccccccccccsccccsc" />
    <path
       style="fill:#ffffff;stroke:none;stroke-width:0.39866254"
       d="m 90.186374,1102.4063 c -10.722946,-3.826 -20.572334,-8.9502 -29.697246,-15.3708 -10.800179,-8.1594 -21.269017,-19.406 -27.832544,-29.0997 -9.698694,-14.948 -16.139904,-33.9283 -17.497793,-49.9395 -0.238738,-3.053 -0.113544,-3.3004 2.623334,-5.1834 l 1.792837,-1.2335 4.409362,0.5031 c 10.152238,1.1498 18.454374,2.2276 26.734463,3.2323 10.670838,1.1668 21.511592,2.2669 27.510972,3.0062 1.568448,0.1943 1.612128,0.2438 2.367464,2.6796 3.470893,11.1931 10.72716,20.2429 21.449357,26.7511 1.30974,0.7949 1.35532,1.466 0.52367,7.7095 -1.70816,13.6845 -3.012072,24.5006 -4.610238,37.7871 -2.099364,17.4613 -2.265688,18.5351 -2.995763,19.3417 -0.872217,0.9639 -1.245721,0.9496 -4.777875,-0.1837 z"
       id="path4800"
       inkscape:connector-curvature="0"
       sodipodi:nodetypes="ccccccccccccccc" />
    <path
       style="fill:#ffffff;stroke:none;stroke-width:0.39866254"
       d="m 80.21982,976.14666 c -12.526443,-1.56828 -15.25604,-1.91473 -26.394399,-3.3983 -14.793725,-1.81934 -30.761459,-4.00619 -31.329006,-4.14302 -0.07051,-0.0946 -0.723376,-0.94355 -1.450812,-1.8867 l -1.322611,-1.71479 0.624188,-2.07249 c 0.727523,-2.41561 1.73725,-5.32072 2.24453,-6.4578 3.25473,-7.00329 6.744118,-14.52196 11.311159,-20.92976 8.936268,-12.33567 14.883913,-18.3544 27.908153,-28.2417 15.724819,-11.08519 36.516966,-17.80033 53.690438,-19.41685 l 2.98997,-0.25802 1.29564,1.70566 c 0.71261,0.93809 1.29566,1.9297 1.29566,2.20356 -0.70647,6.47556 -1.56658,12.95843 -2.37072,19.68892 -0.99249,8.29127 -2.08042,17.1788 -3.00014,24.91642 -1.67633,14.11096 -1.92287,15.92346 -2.25755,16.59777 -0.17778,0.3582 -0.98427,0.77526 -1.79219,0.92683 -2.19997,0.41271 -8.09728,3.05963 -11.38993,5.11219 -6.018361,3.75168 -11.953227,9.84735 -15.557622,15.97911 -0.597566,1.01659 -1.225471,1.82541 -1.395317,1.79739 -0.169829,-0.028 -1.5646,-0.21182 -3.099441,-0.40842 z"
       id="path4802"
       inkscape:connector-curvature="0"
       sodipodi:nodetypes="ccccccccccccccccccccc" />
    <path
       style="fill:#ffffff;stroke:none;stroke-width:0.39866254"
       d="m 226.72829,993.51919 c -10.91943,-1.12024 -15.92207,-1.88273 -27.12968,-3.06617 -10.70312,-1.32727 -19.59244,-2.41845 -30.32102,-3.79366 -0.14109,-0.15734 -0.65865,-1.54188 -1.14994,-3.07672 -3.45363,-10.78943 -11.08204,-20.02211 -21.76994,-26.34824 -0.69188,-0.40953 -0.70525,-0.66782 -0.22702,-4.38529 1.38382,-11.3425 2.52174,-20.64251 3.84923,-31.8565 0.92612,-7.83305 2.14209,-17.73413 2.57043,-20.92978 0.22041,-1.64449 0.40629,-3.2116 0.41306,-3.48246 0.007,-0.27089 1.02086,-1.28408 2.25355,-2.25157 l 2.24121,-1.75907 1.84507,0.59851 c 10.42666,3.38215 21.90823,9.42155 31.34609,16.48827 16.53423,13.5852 31.32984,32.30447 37.63925,51.99967 3.2741,8.58532 4.41628,17.32976 5.62551,26.11207 0.5321,3.83758 0.50478,3.99994 -0.81654,4.85334 -2.48082,1.60221 -1.96842,1.40432 -6.36926,0.8976 z"
       id="path4804"
       inkscape:connector-curvature="0"
       sodipodi:nodetypes="cccccccccccsccccc" />
  </g>
</svg>
