<?xml version="1.0" encoding="UTF-8" standalone="no"?>
<!-- Created with Inkscape (http://www.inkscape.org/) -->

<svg
   xmlns:dc="http://purl.org/dc/elements/1.1/"
   xmlns:cc="http://creativecommons.org/ns#"
   xmlns:rdf="http://www.w3.org/1999/02/22-rdf-syntax-ns#"
   xmlns:svg="http://www.w3.org/2000/svg"
   xmlns="http://www.w3.org/2000/svg"
   xmlns:sodipodi="http://sodipodi.sourceforge.net/DTD/sodipodi-0.dtd"
   xmlns:inkscape="http://www.inkscape.org/namespaces/inkscape"
   width="250"
   height="250"
   viewBox="0 0 66.145832 66.145835"
   version="1.1"
   id="svg8"
   sodipodi:docname="cyoa_soldier_icon.svg"
   inkscape:version="0.92.4 (5da689c313, 2019-01-14)">
  <defs
     id="defs2" />
  <sodipodi:namedview
     id="base"
     pagecolor="#ffffff"
     bordercolor="#666666"
     borderopacity="1.0"
     inkscape:pageopacity="0.0"
     inkscape:pageshadow="2"
     inkscape:zoom="1.4142136"
     inkscape:cx="163.6395"
     inkscape:cy="162.66914"
     inkscape:document-units="mm"
     inkscape:current-layer="layer1"
     showgrid="false"
     units="px"
     inkscape:window-width="1366"
     inkscape:window-height="705"
     inkscape:window-x="-8"
     inkscape:window-y="-8"
     inkscape:window-maximized="1" />
  <metadata
     id="metadata5">
    <rdf:RDF>
      <cc:Work
         rdf:about="">
        <dc:format>image/svg+xml</dc:format>
        <dc:type
           rdf:resource="http://purl.org/dc/dcmitype/StillImage" />
        <dc:title />
      </cc:Work>
    </rdf:RDF>
  </metadata>
  <g
     inkscape:label="Camada 1"
     inkscape:groupmode="layer"
     id="layer1"
     transform="translate(0,-230.85414)">
    <path
       style="opacity:1;vector-effect:none;fill:#ffffff;fill-opacity:1;stroke-width:0.47658795;stroke-linecap:butt;stroke-linejoin:miter;stroke-miterlimit:4;stroke-dasharray:none;stroke-dashoffset:0;stroke-opacity:1;stroke:none"
       d="m 38.343548,257.84312 c -2.793878,-2.31352 -3.23317,-2.71254 -5.611327,-4.88348 0,-0.12557 2.933115,-2.99893 6.537404,-6.24671 2.279916,-1.9709 3.571339,-3.11697 6.078983,-5.2316 0.577962,0.26571 1.137276,0.51173 1.859958,0.61657 0.205909,-0.70666 0.297943,-1.68443 0.337953,-2.16905 0.93438,-0.85586 1.863783,-1.55986 2.874144,-2.33229 0.995789,0.63608 1.758128,1.23498 2.613212,2.01301 1.053146,0.88277 1.846235,1.60506 2.789184,2.33292 l -0.461392,1.13393 c -0.373979,0.9191 -0.591524,1.25935 -1.148276,1.79594 -0.442776,0.42674 -1.727418,0.84034 -1.727418,0.84034 0.156647,0.57424 0.212325,0.55191 0.16961,1.17962 -0.08173,1.20111 -0.545993,2.79037 -1.398713,4.06423 -0.91901,1.52274 -1.856065,3.12744 -2.68427,4.58156 -1.478741,2.3798 -2.841505,5.33226 -4.21784,7.36972 -1.342501,-1.17748 -4.270749,-3.53396 -6.011212,-5.06471 z"
       id="path222"
       inkscape:connector-curvature="0"
       sodipodi:nodetypes="cccccccccccsscccc" />
    <path
       style="opacity:1;vector-effect:none;fill:#ffffff;fill-opacity:1;stroke-width:0.47658795;stroke-linecap:butt;stroke-linejoin:miter;stroke-miterlimit:4;stroke-dasharray:none;stroke-dashoffset:0;stroke-opacity:1;stroke:none"
       d="m 34.511388,261.87066 c -3.915357,-3.3536 -4.919634,-4.43064 -6.0527,-5.65419 0.919751,-0.76083 1.646512,-1.22693 2.530804,-1.88595 1.754095,1.42851 4.114336,3.4104 6.093083,5.04111 2.056392,1.99311 4.355566,3.37976 6.241812,5.44948 -0.693146,0.91426 -1.197239,1.6221 -2.126536,2.52808 -2.758669,-2.05504 -4.195121,-3.2533 -6.686463,-5.47853 z"
       id="path224"
       inkscape:connector-curvature="0"
       sodipodi:nodetypes="ccccccc" />
    <path
       style="opacity:1;vector-effect:none;fill:#ffffff;fill-opacity:1;stroke-width:0.47658795;stroke-linecap:butt;stroke-linejoin:miter;stroke-miterlimit:4;stroke-dasharray:none;stroke-dashoffset:0;stroke-opacity:1;stroke:none"
       d="m 31.36481,265.72886 c -1.236441,-1.07104 -1.992273,-1.75777 -3.089019,-2.7563 0.05294,-1.05314 -0.01395,-2.13258 0.112542,-3.17466 1.725326,1.13559 3.301249,2.75474 4.755287,3.82569 1.838216,1.52652 3.166956,2.43066 4.661493,3.97779 -1.163231,0.0271 -2.388978,0.46043 -3.267635,0.83225 -0.707941,-0.619 -2.266936,-1.94352 -3.172668,-2.70477 z"
       id="path226"
       inkscape:connector-curvature="0"
       sodipodi:nodetypes="ccccccc" />
    <path
       style="opacity:1;vector-effect:none;fill:#ffffff;fill-opacity:1;stroke-width:0.47658795;stroke-linecap:butt;stroke-linejoin:miter;stroke-miterlimit:4;stroke-dasharray:none;stroke-dashoffset:0;stroke-opacity:1;stroke:none"
       d="m 26.217322,271.73497 c -2.07076,-1.9334 -2.272502,-2.1225 -2.635032,-2.5727 0.748059,-1.74761 1.506032,-2.88654 2.633634,-4.58652 1.958528,1.61657 1.999119,1.42049 3.58325,2.90484 1.2036,1.07747 2.352,2.22105 3.609034,3.23673 -1.461081,1.0935 -3.068891,2.3491 -4.353265,3.18892 -0.02596,0 -0.798006,-0.38078 -2.837621,-2.17127 z"
       id="path228"
       inkscape:connector-curvature="0"
       sodipodi:nodetypes="ccccccc" />
    <path
       id="path230"
       style="opacity:1;vector-effect:none;fill:#ffffff;fill-opacity:1;stroke-width:0.47658795;stroke-linecap:butt;stroke-linejoin:miter;stroke-miterlimit:4;stroke-dasharray:none;stroke-dashoffset:0;stroke-opacity:1;stroke:none"
       d="m 22.395137,271.38452 c -4.321743,4.69725 -8.553567,9.89677 -12.273777,14.44894 1.826397,1.79879 4.361991,3.72481 6.077228,4.64342 4.215613,-5.55325 7.481042,-9.73452 11.325164,-14.55192 -1.681022,-1.68142 -3.408241,-3.08532 -5.12861,-4.54049 z"
       inkscape:connector-curvature="0"
       sodipodi:nodetypes="cccccc" />
  </g>
</svg>
